HIERARCHY
ROOT Hips
{
	OFFSET 0.000000 0.000000 0.000000
	CHANNELS 6 Xposition Yposition Zposition Xrotation Yrotation Zrotation
	JOINT LeftUpLeg_virtual
	{
		OFFSET 0.000000 0.000000 0.000000
		CHANNELS 3 Xrotation Yrotation Zrotation
		JOINT LeftUpLeg
		{
			OFFSET 13.026900 -6.336304 -1.092800
			CHANNELS 3 Xrotation Yrotation Zrotation
			JOINT LeftLeg
			{
				OFFSET 0.524474 -46.096886 9.782700
				CHANNELS 3 Xrotation Yrotation Zrotation
				JOINT LeftFoot
				{
					OFFSET -0.524474 -53.427422 -12.948200
					CHANNELS 3 Xrotation Yrotation Zrotation
					JOINT LeftToeBase
					{
						OFFSET 0.192200 -14.009700 16.364100
						CHANNELS 3 Xrotation Yrotation Zrotation
						JOINT LeftToe_End
						{
							OFFSET -1.784700 -0.561700 9.474800
							CHANNELS 3 Xrotation Yrotation Zrotation
							End Site
							{
								OFFSET 0 0 0
							}
						}
					}
				}
			}
		}
	}
	JOINT RightUpLeg_virtual
	{
		OFFSET 0.000000 0.000000 0.000000
		CHANNELS 3 Xrotation Yrotation Zrotation
		JOINT RightUpLeg
		{
			OFFSET -12.883000 -6.336304 -1.092800
			CHANNELS 3 Xrotation Yrotation Zrotation
			JOINT RightLeg
			{
				OFFSET -0.524587 -46.096825 9.782800
				CHANNELS 3 Xrotation Yrotation Zrotation
				JOINT RightFoot
				{
					OFFSET 0.524587 -53.427383 -12.948300
					CHANNELS 3 Xrotation Yrotation Zrotation
					JOINT RightToeBase
					{
						OFFSET -0.192200 -14.009700 16.364100
						CHANNELS 3 Xrotation Yrotation Zrotation
						JOINT RightToe_End
						{
							OFFSET 1.784700 -0.561700 9.474800
							CHANNELS 3 Xrotation Yrotation Zrotation
							End Site
							{
								OFFSET 0 0 0
							}
						}
					}
				}
			}
		}
	}
	JOINT Spine_virtual
	{
		OFFSET 0.000000 0.000000 0.000000
		CHANNELS 3 Xrotation Yrotation Zrotation
		JOINT Spine
		{
			OFFSET 0.072000 7.257294 -0.789700
			CHANNELS 3 Xrotation Yrotation Zrotation
			JOINT Spine1
			{
				OFFSET 0.000000 12.508769 -0.658067
				CHANNELS 3 Xrotation Yrotation Zrotation
				JOINT Spine1_split
				{
					OFFSET 0.000000 12.508769 -0.658067
					CHANNELS 3 Xrotation Yrotation Zrotation
					JOINT Spine2
					{
						OFFSET 0.000000 12.508769 -0.658067
						CHANNELS 3 Xrotation Yrotation Zrotation
						JOINT Neck_virtual
						{
							OFFSET 0.000000 0.000000 0.000000
							CHANNELS 3 Xrotation Yrotation Zrotation
							JOINT Neck
							{
								OFFSET 0.000000 14.033295 7.520400
								CHANNELS 3 Xrotation Yrotation Zrotation
								JOINT Head
								{
									OFFSET 0.000000 8.198502 5.703100
									CHANNELS 3 Xrotation Yrotation Zrotation
									JOINT HeadTop_End
									{
										OFFSET 0.000000 17.760803 13.332701
										CHANNELS 3 Xrotation Yrotation Zrotation
										End Site
										{
											OFFSET 0 0 0
										}
									}
								}
							}
						}
						JOINT LeftShoulder_virtual
						{
							OFFSET 0.000000 0.000000 0.000000
							CHANNELS 3 Xrotation Yrotation Zrotation
							JOINT LeftShoulder
							{
								OFFSET 6.292450 5.785301 -0.669000
								CHANNELS 3 Xrotation Yrotation Zrotation
								JOINT LeftShoulder_split
								{
									OFFSET 6.292450 5.785301 -0.669000
									CHANNELS 3 Xrotation Yrotation Zrotation
									JOINT LeftArm
									{
										OFFSET 13.907140 -6.093903 1.965100
										CHANNELS 3 Xrotation Yrotation Zrotation
										JOINT LeftForeArm
										{
											OFFSET 34.140198 0.000000 0.000000
											CHANNELS 3 Xrotation Yrotation Zrotation
											JOINT LeftHand
											{
												OFFSET 40.960209 0.000000 0.000000
												CHANNELS 3 Xrotation Yrotation Zrotation
												End Site
												{
													OFFSET 0 0 0
												}
											}
										}
									}
								}
							}
						}
						JOINT RightShoulder_virtual
						{
							OFFSET 0.000000 0.000000 0.000000
							CHANNELS 3 Xrotation Yrotation Zrotation
							JOINT RightShoulder
							{
								OFFSET -6.292450 5.785301 -0.669000
								CHANNELS 3 Xrotation Yrotation Zrotation
								JOINT RightShoulder_split
								{
									OFFSET -6.292450 5.785301 -0.669000
									CHANNELS 3 Xrotation Yrotation Zrotation
									JOINT RightArm
									{
										OFFSET -13.907140 -6.093903 1.965100
										CHANNELS 3 Xrotation Yrotation Zrotation
										JOINT RightForeArm
										{
											OFFSET -34.140198 0.000000 0.000000
											CHANNELS 3 Xrotation Yrotation Zrotation
											JOINT RightHand
											{
												OFFSET -40.960209 0.000000 0.000000
												CHANNELS 3 Xrotation Yrotation Zrotation
												End Site
												{
													OFFSET 0 0 0
												}
											}
										}
									}
								}
							}
						}
					}
				}
			}
		}
	}
}
MOTION
Frames: 9
Frame Time: 0.03333333
-2.885808 116.587715 -12.852695 0.000000 0.000000 0.000000 4.365390 23.115961 -0.948498 -31.145700 3.874605 8.441250 38.796588 2.057454 -1.585532 14.828064 -2.254369 -10.503143 -13.438888 -2.399793 -5.118974 0.000000 0.000000 0.000000 6.600779 21.445344 -0.770352 -12.091117 -7.256954 -0.247673 15.473667 3.683008 0.316942 -14.045883 -3.410149 11.588758 7.809620 2.971240 -6.408073 0.000000 0.000000 0.000000 5.295885 23.811540 -1.029404 10.198543 -4.085138 5.699765 2.067119 0.925677 2.457801 -0.013078 0.365723 -0.074211 0.000000 0.000000 0.000000 4.535135 2.924945 2.648040 -11.738214 0.557923 -6.247578 -32.141292 -10.320834 -8.342244 0.000000 0.000000 0.000000 2.318932 1.304866 2.005407 -2.031700 -17.316457 -10.158216 -4.011118 2.587987 -3.880903 23.407331 -16.688532 -56.123719 12.237327 -23.938316 4.135930 0.000000 0.000000 0.000000 3.455893 1.822894 3.414869 -1.911877 -1.417899 4.596972 -9.069191 -2.146772 1.548991 17.893395 9.145300 47.868510 -8.886765 35.774236 14.647732 0.000000 0.000000 0.000000 
-0.935399 116.425873 -10.653393 0.000000 0.000000 0.000000 4.646372 22.773261 -0.628833 -29.351649 3.391374 8.597922 36.088763 2.946363 -1.450646 12.181179 -0.597908 -8.351306 -12.185406 -2.091848 -5.919468 0.000000 0.000000 0.000000 6.703410 20.745366 -0.441554 -12.095169 -7.199458 -1.037328 15.903295 3.629259 0.302673 -14.014781 -3.763180 10.775089 8.015173 2.918527 -6.325861 0.000000 0.000000 0.000000 5.717492 23.479894 -1.300729 10.114486 -3.714597 5.600159 2.399114 1.066329 2.331111 -0.003170 0.493968 -0.062253 0.000000 0.000000 0.000000 4.538397 3.123909 2.434078 -11.284337 0.264101 -6.120111 -32.194575 -9.859994 -8.023441 0.000000 0.000000 0.000000 2.632865 1.473751 1.859141 -2.176387 -17.546858 -9.921476 -4.648500 3.923102 -4.464513 22.839693 -15.155193 -56.615643 12.022309 -22.746258 3.912859 0.000000 0.000000 0.000000 3.634043 2.074817 3.221814 -2.123893 -0.713217 4.683713 -8.469793 -1.221508 0.939741 16.752562 10.092831 48.252186 -9.552278 39.287555 15.040410 0.000000 0.000000 0.000000 
1.703416 116.299522 -7.593510 0.000000 0.000000 0.000000 4.727357 22.126980 0.068628 -27.626957 3.805097 9.907370 31.913246 3.622066 -0.859801 10.344811 1.517249 -8.859175 -9.551366 -1.973286 -6.108510 0.000000 0.000000 0.000000 6.512834 20.147127 0.133255 -11.654155 -7.586599 -2.610528 16.679266 4.087609 0.252995 -13.605429 -3.868642 10.861482 6.787764 3.144254 -6.638541 0.000000 0.000000 0.000000 5.803010 23.195208 -1.115864 10.294710 -2.753276 5.236654 2.632090 1.677360 2.071796 0.036449 0.477016 -0.023962 0.000000 0.000000 0.000000 4.503398 3.785931 2.074962 -10.498318 -0.010547 -5.995023 -31.554139 -11.293757 -8.424158 0.000000 0.000000 0.000000 2.737640 2.095823 1.556934 -2.405873 -17.884842 -10.075396 -5.368133 4.732536 -4.926653 21.021601 -12.558679 -57.373090 11.598295 -21.830176 3.699290 0.000000 0.000000 0.000000 3.629750 2.764337 2.875655 -2.257095 0.199922 4.865735 -7.637850 -1.937975 0.593347 16.325796 11.794974 47.654411 -10.317855 44.806413 15.461622 0.000000 0.000000 0.000000 
4.586165 116.008934 -4.355247 0.000000 0.000000 0.000000 4.556595 21.270760 0.912414 -26.496380 4.841698 11.904857 27.095625 3.440523 0.132924 10.125919 3.110329 -12.299211 -7.353954 -2.070745 -5.236718 0.000000 0.000000 0.000000 6.176065 19.505137 0.813055 -10.686861 -8.331277 -4.668061 17.232508 5.074746 0.164594 -13.209739 -3.567225 11.694531 4.928053 3.600238 -7.223261 0.000000 0.000000 0.000000 5.404109 22.732321 -0.576716 10.557931 -1.343039 4.760669 2.776912 2.667020 1.679917 0.089693 0.317647 -0.002989 0.000000 0.000000 0.000000 4.427218 4.847549 1.611103 -9.517446 -0.250003 -5.824324 -30.272782 -14.587418 -9.426668 0.000000 0.000000 0.000000 2.711813 3.091226 1.102434 -2.698079 -18.327554 -10.675643 -5.633013 4.884087 -5.109031 18.253059 -9.388629 -58.238817 10.865684 -20.888952 3.368720 0.000000 0.000000 0.000000 3.512636 3.801774 2.390633 -2.317674 1.298695 5.111627 -6.822536 -3.576939 0.612259 16.635199 13.601441 46.413205 -11.014892 51.166480 15.761263 0.000000 0.000000 0.000000 
7.393272 115.528595 -1.077667 0.000000 0.000000 0.000000 4.146330 20.261591 1.627026 -26.203119 6.516409 14.230482 22.642420 2.537072 1.285973 10.829193 3.678993 -17.294493 -6.470117 -2.344296 -3.424024 0.000000 0.000000 0.000000 5.776702 18.729731 1.382076 -9.227740 -9.432650 -6.828761 17.194636 6.383852 0.055484 -13.217394 -2.993400 12.538040 3.839231 4.145603 -7.832433 0.000000 0.000000 0.000000 4.930903 22.046589 -0.002531 10.713781 0.330766 4.362159 2.868784 3.914977 1.173578 0.134671 0.087131 0.002306 0.000000 0.000000 0.000000 4.351868 6.175876 1.076355 -8.523962 -0.423352 -5.548446 -28.600203 -19.552986 -10.896317 0.000000 0.000000 0.000000 2.604949 4.363763 0.536011 -3.046649 -18.774032 -11.709093 -5.509465 4.649906 -4.896933 15.023783 -6.036737 -59.078206 9.611605 -19.783392 2.752956 0.000000 0.000000 0.000000 3.377465 5.084831 1.798805 -2.303305 2.674832 5.368059 -6.212320 -4.894843 0.622922 17.189853 15.033945 44.976464 -11.628115 57.546372 15.960935 0.000000 0.000000 0.000000 
10.045687 114.802368 2.003609 0.000000 0.000000 0.000000 3.621716 19.156676 1.975761 -26.813106 8.502617 16.511535 19.136766 1.241111 2.421010 11.698228 3.157166 -22.424457 -6.304309 -2.743305 -1.306110 0.000000 0.000000 0.000000 5.482725 18.079482 1.595417 -7.516102 -10.741832 -8.784290 16.562393 7.765185 -0.008198 -13.635919 -2.369715 13.174380 3.692430 4.642402 -8.253316 0.000000 0.000000 0.000000 4.498931 21.088921 0.353783 10.643433 2.053919 4.210158 2.957385 5.306872 0.605797 0.155318 -0.165433 -0.003759 0.000000 0.000000 0.000000 4.298862 7.655285 0.521448 -7.681319 -0.535321 -5.092073 -26.683118 -25.859774 -12.704599 0.000000 0.000000 0.000000 2.515469 5.801628 -0.084702 -3.438783 -19.127354 -13.012989 -5.177835 4.293944 -4.599972 11.773032 -2.705466 -59.810116 7.709312 -18.681653 1.786564 0.000000 0.000000 0.000000 3.342154 6.503162 1.118819 -2.255505 4.400557 5.537727 -6.100415 -5.455395 0.444777 17.369265 15.667894 43.915879 -12.210742 63.234356 16.139932 0.000000 0.000000 0.000000 
12.570917 113.886208 4.813026 0.000000 0.000000 0.000000 3.166500 18.094971 1.799308 -28.385341 9.892890 18.538667 17.118754 -0.442416 3.437173 12.618113 1.702098 -27.220727 -5.659300 -3.087317 0.362629 0.000000 0.000000 0.000000 5.463620 17.589030 1.304424 -5.753196 -11.975929 -10.383111 15.593030 9.206979 -0.055150 -14.036547 -1.782574 13.988687 3.191045 5.078908 -8.372249 0.000000 0.000000 0.000000 4.245663 19.971381 0.345801 10.252404 3.706585 4.366624 3.066108 6.764193 0.012248 0.153237 -0.349558 0.001175 0.000000 0.000000 0.000000 4.290274 9.175733 -0.007810 -7.141417 -0.552606 -4.434355 -24.737494 -32.961424 -14.656205 0.000000 0.000000 0.000000 2.486280 7.304338 -0.703515 -3.813081 -19.279619 -14.288436 -4.764963 3.725386 -4.468717 8.800582 0.628761 -60.422387 5.192011 -17.806513 0.521412 0.000000 0.000000 0.000000 3.410022 7.952463 0.407530 -2.221655 6.395203 5.617538 -6.173713 -5.311332 0.299212 16.524323 15.335716 43.604904 -12.945643 67.944236 16.515928 0.000000 0.000000 0.000000 
14.866603 112.882668 7.129578 0.000000 0.000000 0.000000 2.969194 17.168710 1.160297 -30.654026 10.324448 20.212111 16.704114 -2.144897 4.227964 13.095885 -0.155671 -30.637124 -4.632975 -3.346862 1.447453 0.000000 0.000000 0.000000 5.560283 17.350052 0.637940 -4.061700 -12.811292 -11.517690 14.654565 10.718523 -0.125861 -14.264955 -1.331845 15.230589 1.699149 5.418290 -8.159358 0.000000 0.000000 0.000000 4.139060 18.947194 0.004977 9.629087 5.158366 4.750897 3.245910 8.212683 -0.574208 0.089858 -0.434763 0.038518 0.000000 0.000000 0.000000 4.346325 10.638299 -0.480262 -6.940307 -0.517154 -3.536270 -23.200462 -40.077542 -16.710773 0.000000 0.000000 0.000000 2.528305 8.809865 -1.255216 -4.117213 -19.196773 -15.302136 -4.295214 3.110940 -4.598709 6.239948 3.913482 -60.931387 2.314872 -17.575952 -0.925047 0.000000 0.000000 0.000000 3.534832 9.377789 -0.268273 -2.218868 8.624853 5.575361 -6.170956 -5.092900 0.345751 14.468420 14.155109 43.847974 -14.166986 71.494192 17.468281 0.000000 0.000000 0.000000 
16.919413 111.736275 9.215416 0.000000 0.000000 0.000000 3.116482 16.230695 0.331088 -32.684596 9.868716 21.300566 17.489558 -3.406424 4.670655 12.798762 -1.604202 -31.886595 -3.758668 -3.560101 2.050697 0.000000 0.000000 0.000000 5.779992 17.154689 -0.177596 -2.913347 -13.120254 -12.276502 14.158684 12.195096 -0.256955 -14.594016 -1.052537 16.674855 0.120631 5.581036 -7.676995 0.000000 0.000000 0.000000 4.043070 18.086735 -0.451650 8.896996 6.329704 5.156900 3.489869 9.584909 -1.124019 0.062193 -0.461868 0.080153 0.000000 0.000000 0.000000 4.434653 12.013135 -0.893179 -7.114264 -0.561567 -2.431825 -22.490411 -46.654287 -18.946714 0.000000 0.000000 0.000000 2.617212 10.270638 -1.716236 -4.355122 -18.983348 -15.984869 -3.596311 2.762380 -4.916806 3.914496 7.152797 -61.275826 -0.591710 -18.073493 -2.423056 0.000000 0.000000 0.000000 3.691942 10.739124 -0.880902 -2.254797 10.954454 5.418025 -6.336807 -5.101995 0.659351 11.330396 12.277248 44.254954 -15.856706 73.612890 18.977568 0.000000 0.000000 0.000000 
